# xmcd
#
# Track frame offsets:
#       150
#       16370
#       33335
#       48973
#       66450
#       84972
#       105824
#       123412
#       143358
#       163137
#       180900
#       195493
#       215095
#       237462
#       263483
#
# Disc length: 3804 seconds
#
# Revision: 12
# Processed by: cddbd v1.5.2PL0 Copyright (c) Steve Scherf et al.
# Submitted via: FreeDbEdit v0.1
#
DISCID=be0eda0f
DTITLE=Lenny Kravitz - Greatest Hits
DYEAR=2000
DGENRE=Rock
TTITLE0=Are You Gonna Go My Way
TTITLE1=Fly Away
TTITLE2=Rock 'n Roll Is Dead
TTITLE3=Again
TTITLE4=It Ain't Over Till It's Over
TTITLE5=Can't Get You Off My Mind
TTITLE6=Mr. Cab Driver
TTITLE7=American Woman
TTITLE8=Stand by My Woman
TTITLE9=Always on the Run
TTITLE10=Heaven Help
TTITLE11=I Belong to You
TTITLE12=Believe
TTITLE13=Let Love Rule
TTITLE14=Black Velveteen
EXTD=YEAR: 2000
EXTT0=
EXTT1=
EXTT2=
EXTT3=
EXTT4=
EXTT5=
EXTT6=
EXTT7=
EXTT8=
EXTT9=
EXTT10=
EXTT11=
EXTT12=
EXTT13=
EXTT14=
PLAYORDER=
